<svg width="125" height="106" viewBox="0 0 125 106" fill="none" xmlns="http://www.w3.org/2000/svg">
<g clip-path="url(#clip0_1_1972)">
<path d="M600 38.5C562.5 38.5 562.5 12.5 525 12.5C487.5 12.5 487.5 38.5 450 38.5C412.5 38.5 412.5 12.5 375 12.5C337.5 12.5 337.5 38.5 300 38.5C262.5 38.5 262.5 12.5 225 12.5C187.5 12.5 187.5 38.5 150 38.5C112.5 38.5 112.5 12.5 75 12.5C37.5 12.5 37.5 38.5 0 38.5" stroke="#6292A5" stroke-miterlimit="10"/>
<path d="M600 65.69C562.5 65.69 562.5 39.69 525 39.69C487.5 39.69 487.5 65.69 450 65.69C412.5 65.69 412.5 39.69 375 39.69C337.5 39.69 337.5 65.69 300 65.69C262.5 65.69 262.5 39.69 225 39.69C187.5 39.69 187.5 65.69 150 65.69C112.5 65.69 112.5 39.69 75 39.69C37.5 39.69 37.5 65.69 0 65.69" stroke="#6292A5" stroke-miterlimit="10"/>
<path d="M600 92.88C562.5 92.88 562.5 66.88 525 66.88C487.5 66.88 487.5 92.88 450 92.88C412.5 92.88 412.5 66.88 375 66.88C337.5 66.88 337.5 92.88 300 92.88C262.5 92.88 262.5 66.88 225 66.88C187.5 66.88 187.5 92.88 150 92.88C112.5 92.88 112.5 66.88 75 66.88C37.5 66.88 37.5 92.88 0 92.88" stroke="#6292A5" stroke-miterlimit="10"/>
</g>
<defs>
<clipPath id="clip0_1_1972">
<rect width="125" height="105.38" fill="white"/>
</clipPath>
</defs>
</svg>
